<?xml version="1.0" encoding="UTF-8" standalone="no"?>
<svg
   xmlns:dc="http://purl.org/dc/elements/1.1/"
   xmlns:cc="http://creativecommons.org/ns#"
   xmlns:rdf="http://www.w3.org/1999/02/22-rdf-syntax-ns#"
   xmlns:svg="http://www.w3.org/2000/svg"
   xmlns="http://www.w3.org/2000/svg"
   xmlns:sodipodi="http://sodipodi.sourceforge.net/DTD/sodipodi-0.dtd"
   xmlns:inkscape="http://www.inkscape.org/namespaces/inkscape"
   inkscape:version="1.0 (1.0+r73+1)"
   sodipodi:docname="javascrip222t.svg"
   id="svg191"
   version="1.1"
   viewBox="0 0 50 50">
  <defs
     id="defs195" />
  <sodipodi:namedview
     inkscape:current-layer="svg191"
     inkscape:window-maximized="1"
     inkscape:window-y="27"
     inkscape:window-x="0"
     inkscape:cy="31.271394"
     inkscape:cx="14.651768"
     inkscape:zoom="7.8913117"
     showgrid="false"
     id="namedview193"
     inkscape:window-height="704"
     inkscape:window-width="1366"
     inkscape:pageshadow="2"
     inkscape:pageopacity="0"
     guidetolerance="10"
     gridtolerance="10"
     objecttolerance="10"
     borderopacity="1"
     bordercolor="#666666"
     pagecolor="#ffffff" />
  <path
     id="surface1"
     d="M6.668 4A2.684 2.684 0 0 0 4 6.668v36.664A2.684 2.684 0 0 0 6.668 46h36.664A2.682 2.682 0 0 0 46 43.332V6.668A2.682 2.682 0 0 0 43.332 4zm0 2h36.664c.371 0 .668.297.668.668v36.664a.665.665 0 0 1-.668.668H6.668A.665.665 0 0 1 6 43.332V6.668C6 6.297 6.297 6 6.668 6zM23 23v12.574c0 1.93-.73 2.426-2 2.426-1.328 0-2.25-.828-2.86-1.902L15 38c.91 1.926 3.14 4 6.234 4C24.656 42 27 40.18 27 36.184V23zm12.453 0c-3.406 0-5.59 2.18-5.59 5.043 0 3.105 1.832 4.574 4.586 5.746l.953.41c1.739.762 2.598 1.227 2.598 2.535 0 1.09-.828 1.88-2.41 1.88-1.883 0-2.774-1.278-3.59-2.614l-3 2c1.121 2.215 3.133 4 6.676 4C39.3 42 42 40.117 42 36.684c0-3.188-1.828-4.606-5.074-5.996l-.953-.407c-1.637-.71-2.348-1.172-2.348-2.316 0-.926.71-1.637 1.828-1.637 1.098 0 1.8.465 2.453 1.637l2.973-1.906c-1.254-2.215-3-3.059-5.426-3.059z" />
  <metadata
     id="metadata189">
    <rdf:RDF>
      <rdf:Description
         dc:language="en"
         dc:format="image/svg+xml"
         dc:date="2017-12-09"
         dc:publisher="Iconscout"
         dc:description="javascript"
         dc:title="javascript"
         about="https://iconscout.com/legal#licenses">
        <dc:creator>
          <rdf:Bag>
            <rdf:li>Icons8</rdf:li>
          </rdf:Bag>
        </dc:creator>
      </rdf:Description>
      <cc:Work
         rdf:about="">
        <dc:format>image/svg+xml</dc:format>
        <dc:type
           rdf:resource="http://purl.org/dc/dcmitype/StillImage" />
        <dc:title></dc:title>
      </cc:Work>
    </rdf:RDF>
  </metadata>
  <path
     id="path197"
     d="m 34.503636,41.88895 c -1.691464,-0.236656 -3.286271,-1.055831 -4.30195,-2.209704 -0.423304,-0.480898 -1.079822,-1.456311 -1.079822,-1.60433 0,-0.05424 0.640205,-0.525205 1.422679,-1.046584 l 1.422679,-0.947962 0.417436,0.610938 c 0.845943,1.238082 1.755664,1.849409 2.893976,1.944735 1.631725,0.136647 2.739799,-0.628267 2.739799,-1.891308 0,-1.269912 -0.453852,-1.658333 -3.498752,-2.994334 -1.560542,-0.684713 -2.311741,-1.149226 -3.065459,-1.895562 -1.048828,-1.038556 -1.523258,-2.196753 -1.523258,-3.718638 0,-1.450011 0.450961,-2.567881 1.427844,-3.539427 0.681977,-0.678251 1.432041,-1.081639 2.525246,-1.358087 1.064728,-0.269247 2.765627,-0.206971 3.795157,0.138954 0.943153,0.316902 1.825542,0.923257 2.415907,1.660149 0.459797,0.573915 0.720459,0.981873 0.66035,1.0335 -0.01631,0.01401 -0.660491,0.430026 -1.431506,0.924475 l -1.401844,0.898999 -0.285084,-0.43996 c -0.512113,-0.790325 -1.207355,-1.157065 -2.18683,-1.153553 -1.084935,0.0039 -1.761598,0.565948 -1.830651,1.520595 -0.09018,1.246749 0.393684,1.682056 3.208404,2.886428 2.881657,1.233012 4.259706,2.398281 4.852873,4.103554 0.173715,0.499409 0.202221,0.761269 0.199965,1.836918 -0.0022,1.064551 -0.03242,1.335879 -0.199399,1.792114 -0.602658,1.646652 -2.003657,2.797773 -3.981944,3.271734 -0.865058,0.207253 -2.378187,0.290752 -3.195816,0.176356 z"
     style="fill:#ffffff;stroke-width:0.0896057" />
  <path
     id="path199"
     d="m 20.116487,41.853957 c -1.339934,-0.261185 -2.460739,-0.827836 -3.474153,-1.756446 -0.566848,-0.519413 -1.498965,-1.767807 -1.498965,-2.007579 0,-0.109564 2.768378,-1.844412 2.943214,-1.844412 0.04882,0 0.172965,0.136239 0.275877,0.302754 0.275235,0.445339 0.946473,1.031102 1.423223,1.241991 0.504445,0.223141 1.449395,0.304095 1.954411,0.167437 0.481668,-0.130341 0.799037,-0.387658 1.044664,-0.846997 l 0.199113,-0.372354 0.02508,-6.832437 0.02508,-6.832437 h 1.972625 1.972625 l -0.02894,7.19086 c -0.02861,7.110448 -0.03116,7.198775 -0.227735,7.898637 -0.663841,2.363431 -2.385735,3.629313 -5.127628,3.769671 -0.532428,0.02726 -1.086179,-0.0022 -1.478495,-0.07869 z"
     style="fill:#ffffff;stroke-width:0.0896057" />
  <path
     id="path203"
     d="M 5.7638196,45.776206 C 5.2524536,45.595009 4.6109753,45.008539 4.3192354,44.455497 L 4.0770609,43.996416 V 25 6.0035842 L 4.3192354,5.5445028 C 4.4524314,5.292008 4.7470068,4.9220524 4.9738474,4.7223792 5.7711721,4.0205459 4.0173436,4.0770609 25,4.0770609 c 20.982657,0 19.228828,-0.056515 20.026152,0.6453183 0.226841,0.1996732 0.521417,0.5696288 0.654612,0.8221236 l 0.242175,0.4590814 V 25 43.996416 l -0.242175,0.459081 c -0.133195,0.252495 -0.427771,0.622451 -0.654612,0.822124 -0.797707,0.70217 0.963508,0.646147 -20.064516,0.638244 C 8.5853681,45.909711 6.0893444,45.891553 5.7638196,45.776206 Z M 43.746478,43.919059 c 0.08431,-0.06405 0.195194,-0.226685 0.246415,-0.361406 0.130077,-0.34213 0.130077,-36.7731767 0,-37.1153058 -0.05122,-0.1347207 -0.162108,-0.2973536 -0.246415,-0.3614065 -0.226904,-0.1723889 -37.2660527,-0.1723889 -37.4929552,0 -0.084308,0.064053 -0.195195,0.2266858 -0.2464157,0.3614065 -0.1300773,0.3421291 -0.1300773,36.7731758 0,37.1153058 0.051221,0.134721 0.1621078,0.297353 0.2464157,0.361406 0.2269025,0.172389 37.2660512,0.172389 37.4929552,0 z"
     style="fill:#ffffff;stroke-width:0.0896057" />
</svg>
