<?xml version="1.0" encoding="UTF-8" standalone="no"?>
<svg
   xmlns:dc="http://purl.org/dc/elements/1.1/"
   xmlns:cc="http://creativecommons.org/ns#"
   xmlns:rdf="http://www.w3.org/1999/02/22-rdf-syntax-ns#"
   xmlns:svg="http://www.w3.org/2000/svg"
   xmlns="http://www.w3.org/2000/svg"
   xmlns:sodipodi="http://sodipodi.sourceforge.net/DTD/sodipodi-0.dtd"
   xmlns:inkscape="http://www.inkscape.org/namespaces/inkscape"
   inkscape:version="1.0 (1.0+r73+1)"
   sodipodi:docname="vuejscolor2.svg"
   id="svg82"
   version="1.1"
   viewBox="0 0 128 128"
   height="128"
   width="128">
  <metadata
     id="metadata88">
    <rdf:RDF>
      <cc:Work
         rdf:about="">
        <dc:format>image/svg+xml</dc:format>
        <dc:type
           rdf:resource="http://purl.org/dc/dcmitype/StillImage" />
        <dc:title></dc:title>
      </cc:Work>
    </rdf:RDF>
  </metadata>
  <defs
     id="defs86" />
  <sodipodi:namedview
     inkscape:current-layer="svg82"
     inkscape:window-maximized="1"
     inkscape:window-y="27"
     inkscape:window-x="0"
     inkscape:cy="67.347112"
     inkscape:cx="64"
     inkscape:zoom="3.9884463"
     showgrid="false"
     id="namedview84"
     inkscape:window-height="704"
     inkscape:window-width="1366"
     inkscape:pageshadow="2"
     inkscape:pageopacity="0"
     guidetolerance="10"
     gridtolerance="10"
     objecttolerance="10"
     borderopacity="1"
     bordercolor="#666666"
     pagecolor="#ffffff" />
  <path
     id="path72"
     white-space="normal"
     d="m 35.543041,96.375969 c -0.329826,0 -0.658294,0.0945 -0.943628,0.28308 -0.285326,0.18861 -0.54695,0.51386 -0.54695,0.93138 0,0.055 -0.03233,0.17822 0.07514,0.39317 l -0.02796,-0.0681 5.735136,18.606841 c 0.102661,0.34906 0.349098,0.61582 0.625585,0.76887 0.276485,0.15307 0.580724,0.21145 0.87547,0.21145 0.626685,0 1.314835,-0.29907 1.525535,-0.97333 v -0.002 l 5.729856,-18.676641 v -0.0681 c 0,0.0942 0.02796,0.0397 0.02796,-0.16425 0,-0.42464 -0.271216,-0.73688 -0.560926,-0.93316 -0.289718,-0.19626 -0.630791,-0.30929 -0.985589,-0.30929 -0.43753,0 -0.940855,0.26611 -1.109594,0.77236 l -0.0034,0.006 -4.625452,15.436971 -4.64299,-15.409241 c -0.06884,-0.27533 -0.254279,-0.50601 -0.470059,-0.63431 -0.215782,-0.1283 -0.451165,-0.17126 -0.678014,-0.17126 z m 45.678348,0.95938 c -0.912941,0 -1.68282,0.69937 -1.68282,1.57447 0,0.87506 0.757899,1.598901 1.68282,1.598901 0.907394,0 1.628603,-0.737411 1.628603,-1.598901 0,-0.86151 -0.733663,-1.57447 -1.628603,-1.57447 z m -13.446281,5.957011 c -3.121033,0 -5.691385,2.49753 -5.691385,5.4992 v 3.0755 c 0,1.68121 0.669908,3.1221 1.806824,4.117 1.136971,0.99481 2.723971,1.54477 4.543321,1.54477 1.343823,0 2.439101,-0.30086 3.222311,-0.70946 0.39157,-0.20429 0.706206,-0.43346 0.938351,-0.68324 0.232171,-0.24979 0.403656,-0.5232 0.403656,-0.86499 0,-0.31382 -0.120863,-0.58576 -0.31629,-0.83003 -0.195418,-0.24428 -0.503245,-0.46832 -0.899968,-0.46832 -0.286542,0 -0.506519,0.1206 -0.697231,0.23766 -0.190704,0.11705 -0.36982,0.24638 -0.585395,0.37045 -0.431151,0.24816 -1.00241,0.48929 -2.011262,0.48929 -1.123192,0 -2.059842,-0.32032 -2.705001,-0.85799 -0.645224,-0.53769 -1.020483,-1.28416 -1.020483,-2.26294 v -0.56967 h 5.757771 c 0.614115,0 1.296762,9e-4 1.887257,-0.37571 0.59045,-0.37698 0.948818,-1.12623 0.948818,-2.26642 0,-3.15754 -2.634591,-5.44499 -5.581339,-5.44499 z m 21.638949,0 c -1.658933,0 -2.878931,0.53679 -3.662678,1.34382 -0.783721,0.807 -1.121851,1.85684 -1.121851,2.83787 0,1.25023 0.505088,2.14627 1.228409,2.72075 0.723364,0.57448 1.623323,0.86357 2.47963,1.12185 0.856325,0.25828 1.675932,0.48751 2.226254,0.82654 0.550323,0.33903 0.845759,0.70576 0.845759,1.48009 0,0.41563 -0.124899,0.74646 -0.463073,1.01699 -0.338175,0.27053 -0.938528,0.48403 -1.916961,0.48403 -1.157459,0 -1.80432,-0.28549 -2.275194,-0.57665 -0.23541,-0.14559 -0.425085,-0.29666 -0.620341,-0.43162 -0.195258,-0.13495 -0.416666,-0.28133 -0.726936,-0.28133 -0.373434,0 -0.648774,0.23005 -0.816054,0.46831 -0.16728,0.23825 -0.263861,0.50893 -0.263861,0.80207 0,0.36245 0.176396,0.68114 0.426372,0.95759 0.249985,0.27646 0.588223,0.52248 1.003036,0.73742 0.82961,0.42989 1.971984,0.72868 3.328869,0.72868 1.473105,0 2.684605,-0.35958 3.542076,-1.05717 0.857413,-0.69762 1.324587,-1.7347 1.324587,-2.93046 0,-1.35062 -0.490967,-2.32181 -1.214449,-2.96366 -0.723517,-0.64182 -1.636927,-0.9727 -2.505848,-1.23896 -0.868878,-0.26627 -1.705009,-0.47353 -2.264638,-0.76538 -0.559645,-0.29187 -0.823042,-0.56108 -0.823042,-1.18126 0,-0.33547 0.134204,-0.75741 0.475304,-1.09036 0.341099,-0.33299 0.897552,-0.60287 1.822571,-0.60287 0.739066,0 1.288442,0.16973 1.728181,0.34948 0.219887,0.0899 0.411006,0.1838 0.592386,0.26213 0.181369,0.0783 0.348608,0.15551 0.588876,0.15551 0.433979,0 0.731394,-0.28627 0.908652,-0.55219 0.177281,-0.26591 0.279587,-0.52819 0.279587,-0.82828 0,-0.37595 -0.233935,-0.64241 -0.492775,-0.84227 -0.25884,-0.19987 -0.583323,-0.35852 -0.959376,-0.49626 -0.752047,-0.27552 -1.711181,-0.45434 -2.673598,-0.45434 z m -39.238376,0.16601 c -0.725639,0 -1.352502,0.45498 -1.352502,1.13232 v 7.33055 c 0,2.97376 2.528212,5.60754 5.663471,5.60754 3.082382,0 5.663471,-2.60282 5.663471,-5.60754 v -7.35668 c 0,-0.33902 -0.186534,-0.63307 -0.431616,-0.81955 -0.245082,-0.18647 -0.556497,-0.28658 -0.894689,-0.28658 -0.338193,0 -0.651342,0.0988 -0.901668,0.28134 -0.250342,0.18254 -0.450843,0.47429 -0.450843,0.82479 v 7.35668 c 0,1.55881 -1.358406,3.06672 -2.984592,3.06672 -1.653207,0 -2.984594,-1.53475 -2.984594,-3.06672 v -7.33055 c 0,-0.35111 -0.191777,-0.62181 -0.429871,-0.81431 -0.238095,-0.1925 -0.549071,-0.31804 -0.896478,-0.31804 z m 31.046603,0 c -0.339275,0 -0.653561,0.0874 -0.903457,0.2761 -0.249869,0.18879 -0.421131,0.4994 -0.421131,0.83003 v 13.50622 c 0,1.01351 -0.07104,1.86365 -0.293565,2.37827 -0.222535,0.51461 -0.485118,0.74265 -1.235476,0.74265 -0.662901,0 -1.216239,0.57919 -1.216239,1.27216 0,0.28802 0.09291,0.60417 0.32852,0.851 0.235616,0.24684 0.601383,0.39143 1.023971,0.39143 1.426403,0 2.517745,-0.6325 3.168095,-1.6601 0.650402,-1.02755 0.903456,-2.40215 0.903456,-3.97545 v -13.50623 c 0,-0.35194 -0.201055,-0.65814 -0.456085,-0.83878 -0.255022,-0.18064 -0.568271,-0.26735 -0.898179,-0.26735 z m -13.474911,2.2123 c 1.781594,0 2.984593,1.49153 2.984593,3.0108 0,0.16555 -0.01781,0.27395 -0.03498,0.32328 -0.01709,0.0494 -0.01548,0.0429 -0.04017,0.0594 -0.04939,0.033 -0.324333,0.10305 -0.851001,0.10305 h -5.043094 v -0.59587 c 0,-1.59005 1.328166,-2.90077 2.984593,-2.90077 z m 8.510013,8.38422 c -0.973153,0 -1.710735,0.80527 -1.710735,1.73694 0,0.89496 0.726541,1.71074 1.710735,1.71074 0.932266,0 1.682821,-0.79094 1.682821,-1.71074 0,-0.95462 -0.762991,-1.73694 -1.682821,-1.73694 z"
     fill="#35495e"
     style="text-indent:0;text-decoration:none;text-decoration-line:none;text-decoration-style:solid;text-decoration-color:#000000;text-transform:none;isolation:auto;mix-blend-mode:normal;stroke-width:0.894689" />
  <g
     id="g80"
     transform="matrix(0.76738372,0,0,0.76738372,14.887442,1.8824912)">
    <path
       id="path74"
       d="M -2.3125e-8,8.9337 49.854,9.0923 64.021,33.5623 78.453,9.0923 128,8.9349 64.166,119.0749 Z M 126.98,9.5711 102.62,9.5918 64.144,75.6438 25.691,9.5918 0.94199998,9.5722 64.153,117.4622 Z M 101.831,9.5631 79.086,9.73068 64.033,34.37768 49.216,9.73068 26.422,9.56278 64.153,74.03878 Z M 25.997,9.3929 48.999,9.4016 64.035,34.3596 79.018,9.4036 102,9.3975 64.15,75.0525"
       fill="none" />
    <path
       id="path76"
       d="M 25.997,9.3929 48.999,9.4016 64.035,34.3596 79.018,9.4036 102,9.3975 64.15,75.0525 Z"
       fill="#35495e" />
    <path
       id="path78"
       d="m 0.91068,9.5686 25.066,-0.1711 38.151,65.658 37.852,-65.654 25.11,0.0263 -62.966,108.06 z"
       fill="#41b883" />
  </g>
</svg>
