<?xml version="1.0" standalone="no"?>
<!DOCTYPE svg PUBLIC "-//W3C//DTD SVG 20010904//EN"
 "http://www.w3.org/TR/2001/REC-SVG-20010904/DTD/svg10.dtd">
<svg version="1.0" xmlns="http://www.w3.org/2000/svg"
 width="1099.000000pt" height="879.000000pt" viewBox="0 0 1099.000000 879.000000"
 preserveAspectRatio="xMidYMid meet">

<g transform="translate(0.000000,879.000000) scale(0.100000,-0.100000)"
fill="#000000" stroke="none">
<path d="M4880 6900 c-181 -12 -461 -57 -482 -78 -5 -5 30 -12 84 -16 138 -10
366 -60 443 -97 17 -8 17 -9 -5 -4 -72 15 -329 27 -505 22 -171 -4 -222 -9
-351 -36 -158 -32 -358 -97 -459 -149 -66 -34 -53 -40 40 -16 70 17 358 31
335 16 -8 -6 -53 -22 -100 -37 -200 -64 -431 -194 -655 -368 -81 -63 -263
-227 -269 -242 -5 -14 16 -31 348 -283 75 -56 136 -107 136 -112 0 -5 -28 -30
-61 -57 -105 -82 -188 -218 -230 -378 -20 -76 -24 -114 -24 -242 0 -173 14
-217 35 -111 25 129 101 267 204 367 54 54 56 54 76 36 18 -17 70 -157 70
-191 0 -22 13 -17 61 21 72 57 136 76 280 82 110 5 136 3 195 -15 199 -60 319
-230 369 -521 9 -47 20 -189 25 -316 14 -332 39 -480 119 -715 96 -285 262
-573 453 -789 46 -51 98 -111 116 -132 l33 -38 -48 21 c-157 68 -376 272 -512
478 -173 260 -316 612 -454 1115 -104 379 -165 536 -229 590 -30 26 -37 27
-104 23 -79 -5 -193 -52 -264 -108 -34 -27 -38 -35 -49 -107 -15 -95 -70 -311
-116 -453 -18 -58 -39 -146 -46 -195 -15 -119 -6 -307 20 -408 29 -112 96
-258 163 -359 61 -91 191 -237 202 -227 4 4 2 26 -3 50 -22 92 -5 379 24 407
7 7 34 -29 35 -46 0 -7 28 -70 63 -140 119 -238 220 -377 426 -582 137 -136
295 -269 306 -258 3 3 -9 36 -26 74 -56 125 -111 384 -81 384 6 0 33 -28 60
-62 63 -79 240 -253 356 -353 183 -155 585 -455 611 -455 16 0 109 66 335 235
274 205 496 406 627 568 31 37 60 67 66 67 14 0 2 -118 -23 -215 -12 -44 -39
-119 -60 -167 -21 -49 -36 -88 -33 -88 23 0 238 187 356 309 198 205 353 442
454 694 8 20 19 37 24 37 18 0 31 -81 36 -220 3 -81 1 -164 -5 -188 -5 -23 -6
-44 -2 -47 12 -7 136 130 192 213 66 98 132 237 164 347 20 68 27 121 31 221
7 159 -6 261 -52 404 -49 153 -103 364 -115 450 -9 66 -14 78 -42 104 -18 15
-70 46 -116 69 -67 32 -97 41 -155 45 -68 4 -75 2 -105 -23 -56 -47 -111 -182
-197 -480 -93 -323 -159 -533 -208 -665 -59 -160 -159 -375 -224 -480 -157
-255 -385 -479 -568 -559 l-49 -22 20 23 c11 13 51 57 88 98 246 270 420 576
525 925 57 189 91 415 91 614 0 236 39 463 101 589 39 81 114 170 175 211 27
17 80 41 118 53 59 18 86 20 195 15 143 -6 199 -22 281 -82 28 -21 52 -36 54
-34 2 2 11 33 20 69 20 79 53 150 70 150 19 0 111 -97 161 -169 51 -73 88
-161 105 -249 21 -107 35 -62 35 111 -1 123 -5 169 -23 239 -40 159 -122 295
-232 383 -33 26 -60 52 -60 56 0 4 64 56 143 116 78 59 186 141 240 181 53 41
100 79 103 84 15 23 -264 260 -459 391 -126 84 -350 195 -479 237 -54 17 -98
34 -98 37 0 11 286 -7 345 -21 93 -23 106 -18 41 16 -146 75 -388 144 -606
174 -165 22 -596 14 -708 -12 -53 -13 -14 7 54 27 116 35 284 68 382 75 50 4
92 10 92 14 0 9 -237 55 -365 71 -119 15 -503 14 -634 0 -76 -9 -133 -10 -210
-2 -155 15 -379 20 -511 11z m858 -371 c128 -13 328 -54 422 -85 158 -53 390
-188 390 -227 0 -7 -53 -46 -118 -88 -64 -43 -211 -139 -327 -214 -481 -315
-460 -302 -452 -281 5 13 272 368 360 478 16 20 27 41 23 46 -8 13 -140 60
-221 77 -95 21 -405 31 -525 17 -154 -19 -347 -77 -338 -103 2 -4 40 -57 86
-116 45 -59 132 -173 193 -252 60 -79 108 -146 105 -148 -8 -8 -20 -1 -511
321 -126 83 -265 174 -307 201 -43 28 -78 56 -78 62 0 31 164 137 301 193 122
51 367 107 534 123 90 8 372 6 463 -4z m-1568 -268 c-124 -65 -264 -142 -310
-171 -162 -101 -255 -163 -297 -197 l-42 -33 124 -252 c69 -138 122 -254 120
-257 -5 -5 -248 236 -406 402 l-74 79 35 30 c209 177 468 320 797 440 87 32
234 75 263 77 8 0 -86 -52 -210 -118z m2520 99 c57 -11 269 -87 378 -134 137
-59 296 -144 396 -210 103 -70 236 -174 236 -186 0 -13 -467 -485 -474 -479
-3 3 50 118 118 255 l125 249 -32 29 c-84 75 -387 260 -642 391 -200 104 -215
112 -175 101 14 -3 45 -11 70 -16z m-2570 -667 c47 -14 139 -43 205 -63 66
-21 190 -59 275 -85 85 -26 216 -67 290 -90 74 -24 160 -51 191 -59 31 -9 64
-23 75 -30 17 -13 9 -17 -81 -44 -126 -38 -371 -111 -496 -147 -107 -31 -148
-29 -194 7 -22 17 -374 479 -409 537 -10 16 20 11 144 -26z m2894 25 c-28 -48
-389 -521 -410 -537 -47 -37 -85 -37 -217 2 -372 108 -542 159 -556 167 -22
12 19 28 239 95 179 55 347 107 595 186 172 54 322 97 343 98 8 1 10 -4 6 -11z
m-793 -703 c104 -69 189 -129 189 -134 0 -4 -29 -30 -63 -57 -130 -100 -209
-216 -230 -339 -10 -58 -8 -79 12 -178 26 -130 28 -241 6 -347 -22 -109 -128
-320 -150 -299 -3 4 -19 86 -35 184 -15 97 -31 179 -34 182 -3 3 -76 34 -163
68 l-158 62 -3 100 c-2 93 -1 103 26 154 30 58 106 124 155 135 20 4 42 25 74
67 81 111 87 141 37 173 -36 24 -742 24 -778 1 -48 -32 -39 -71 38 -175 33
-44 55 -64 75 -68 48 -10 123 -74 153 -133 27 -51 28 -61 26 -154 l-3 -100
-160 -63 c-105 -41 -162 -69 -167 -81 -4 -10 -14 -70 -23 -133 -22 -157 -35
-220 -45 -220 -28 0 -120 191 -144 297 -22 101 -20 227 6 355 20 93 21 115 11
173 -21 125 -102 246 -226 337 -37 28 -66 55 -65 60 2 5 87 65 188 133 l185
124 538 1 538 0 190 -125z m-2477 -667 c-2 -18 -11 -78 -20 -133 -8 -55 -18
-166 -21 -247 l-6 -146 26 -26 c35 -35 125 -39 236 -11 30 8 58 12 63 9 4 -3
8 -20 8 -38 0 -60 38 -182 89 -287 89 -185 225 -371 432 -591 61 -65 107 -118
104 -118 -18 0 -118 57 -189 108 -126 91 -285 251 -465 466 -111 133 -181 208
-208 223 -38 22 -41 22 -74 5 -42 -21 -83 -93 -106 -187 -16 -67 -16 -67 -34
-44 -9 13 -28 66 -41 118 -20 82 -23 121 -23 266 0 161 2 176 33 283 17 62 48
145 68 185 38 78 115 197 126 197 4 0 5 -15 2 -32z m3562 -39 c60 -94 116
-222 145 -334 21 -78 24 -113 24 -265 0 -150 -3 -188 -23 -265 -22 -86 -61
-164 -62 -122 0 10 -12 54 -27 98 -31 96 -74 149 -119 149 -54 0 -93 -38 -269
-255 -121 -150 -351 -377 -460 -454 -76 -53 -161 -101 -182 -101 -3 0 37 44
87 98 325 343 513 648 537 873 3 33 9 62 13 64 4 2 22 0 41 -6 119 -34 228
-29 263 13 17 21 18 36 13 173 -3 83 -15 204 -26 270 -24 141 -24 135 -11 135
6 0 31 -32 56 -71z m-2132 -766 c-1 -10 -11 -52 -20 -93 -33 -151 -18 -309 42
-440 44 -96 24 -90 299 -90 273 0 252 -6 298 85 62 126 76 290 39 463 l-20 94
30 -29 c17 -15 47 -53 68 -84 71 -104 100 -193 100 -311 l0 -87 -57 -75 c-48
-61 -136 -173 -440 -553 -6 -8 -16 -13 -21 -12 -6 2 -46 49 -89 104 -44 55
-149 188 -234 295 -206 260 -189 229 -189 332 0 71 5 102 29 166 29 79 78 160
134 220 36 37 36 37 31 15z"/>
</g>
</svg>
